<?xml version="1.0" standalone="no"?>
<!DOCTYPE svg PUBLIC "-//W3C//DTD SVG 20010904//EN"
 "http://www.w3.org/TR/2001/REC-SVG-20010904/DTD/svg10.dtd">
<svg version="1.0" xmlns="http://www.w3.org/2000/svg"
 width="300.000000pt" height="41.000000pt" viewBox="0 0 300.000000 41.000000"
 preserveAspectRatio="xMidYMid meet">
<metadata>
Created by potrace 1.10, written by Peter Selinger 2001-2011
</metadata>
<g transform="translate(0.000000,41.000000) scale(0.100000,-0.100000)"
fill="#000000" stroke="none">
<path d="M175 274 c-69 -69 -125 -130 -125 -135 0 -5 7 -12 16 -16 11 -4 48
27 125 103 59 59 112 105 116 101 4 -4 -42 -57 -102 -117 -91 -92 -108 -113
-99 -127 30 -48 38 -44 171 89 l126 126 -13 32 c-12 28 -61 70 -83 70 -4 0
-63 -57 -132 -126z m183 34 c-4 -23 -197 -218 -216 -218 -17 0 17 39 103 122
66 63 101 113 85 123 -5 3 -10 11 -10 17 0 6 9 3 20 -7 12 -11 20 -27 18 -37z"/>
<path d="M2870 339 c0 -5 7 -9 15 -9 11 0 15 -12 15 -48 l0 -48 -39 4 c-57 6
-81 -21 -81 -93 0 -42 5 -60 20 -75 21 -21 74 -27 85 -10 3 5 -3 10 -14 10
-19 0 -21 6 -21 75 0 60 3 77 16 82 25 9 34 -16 33 -88 -1 -36 1 -71 5 -78 4
-6 26 -11 49 -10 23 0 36 3 30 6 -10 3 -13 42 -13 146 l0 142 -50 1 c-28 1
-50 -3 -50 -7z"/>
<path d="M544 233 c-58 -153 -64 -167 -77 -175 -7 -4 3 -8 23 -8 24 0 31 3 21
9 -11 7 -11 15 -1 45 11 35 14 37 53 34 36 -3 41 -6 53 -40 11 -33 11 -37 -4
-41 -9 -3 39 -5 107 -6 107 -1 122 1 111 13 -8 10 -10 42 -7 95 l4 81 -51 -1
c-28 -1 -43 -3 -33 -6 14 -4 17 -17 17 -89 l0 -85 -27 3 c-25 3 -31 13 -71
123 -24 66 -45 126 -47 133 -3 6 -11 12 -19 12 -9 0 -28 -36 -52 -97z m85 -41
c32 -86 38 -113 22 -96 -10 10 -61 157 -61 176 0 21 9 3 39 -80z m-62 -40
c-16 -2 -31 -2 -33 1 -2 2 4 26 13 53 l16 49 17 -50 17 -50 -30 -3z"/>
<path d="M1910 318 c0 -4 6 -7 13 -5 9 1 13 -28 15 -118 2 -105 1 -121 -15
-133 -29 -23 156 -11 191 11 47 32 29 107 -29 119 -17 3 -16 6 10 18 23 11 31
23 33 47 5 49 -29 66 -134 68 -46 1 -84 -2 -84 -7z m134 -14 c28 -28 14 -104
-19 -104 -12 0 -15 14 -15 60 0 62 7 71 34 44z m-67 -167 c-2 -28 -3 -5 -3 53
0 58 1 81 3 53 2 -29 2 -77 0 -106z m84 32 c13 -26 5 -89 -13 -101 -31 -19
-38 -8 -38 57 0 58 2 65 20 65 10 0 24 -10 31 -21z m46 -56 c-3 -10 -5 -4 -5
12 0 17 2 24 5 18 2 -7 2 -21 0 -30z"/>
<path d="M841 226 c-10 -12 -8 -13 9 -9 21 6 21 3 18 -81 l-3 -86 55 1 c30 1
47 3 38 6 -15 4 -18 17 -18 82 0 46 -5 82 -12 89 -17 17 -73 15 -87 -2z"/>
<path d="M996 218 c-33 -47 -12 -88 54 -105 25 -7 35 -15 35 -29 0 -40 -77
-25 -95 19 -8 19 -9 17 -9 -13 -1 -34 0 -35 42 -38 64 -4 84 4 96 40 15 42 -5
72 -61 90 -50 17 -57 41 -13 46 23 3 35 -3 52 -24 l22 -28 -1 31 c-1 29 -2 30
-54 32 -44 1 -55 -2 -68 -21z"/>
<path d="M1143 228 c9 -7 28 -50 42 -96 23 -73 29 -82 50 -82 21 0 27 8 43 62
l20 63 17 -63 c16 -58 20 -63 43 -60 23 3 28 12 49 87 12 47 28 88 35 93 8 5
-1 7 -22 7 -19 -1 -28 -3 -19 -6 15 -4 15 -9 1 -66 l-16 -62 -18 59 c-15 47
-16 61 -6 68 8 4 -9 8 -40 8 -49 0 -51 -1 -40 -19 9 -14 8 -29 -2 -65 -15 -54
-23 -51 -39 18 -10 40 -10 51 1 57 8 5 -14 9 -51 9 -54 0 -62 -2 -48 -12z"/>
<path d="M1475 215 c-25 -24 -34 -81 -19 -120 9 -23 57 -45 98 -45 34 0 76 30
76 53 0 6 -11 -2 -25 -17 -28 -30 -47 -33 -70 -10 -23 24 -18 147 8 152 13 3
17 -4 17 -32 0 -25 -5 -36 -17 -39 -10 -2 6 -4 34 -3 60 1 68 15 32 60 -29 36
-99 37 -134 1z m12 -87 c-2 -13 -4 -5 -4 17 -1 22 1 32 4 23 2 -10 2 -28 0
-40z"/>
<path d="M1653 229 c14 -8 17 -24 17 -84 0 -60 -3 -76 -17 -84 -13 -8 0 -10
52 -9 39 0 59 3 47 5 -23 4 -24 8 -22 76 4 112 6 107 -47 107 -38 -1 -44 -3
-30 -11z"/>
<path d="M1749 223 c-13 -16 -12 -17 3 -5 9 8 22 11 28 7 7 -5 5 -11 -7 -20
-16 -13 -17 -15 -2 -30 19 -19 46 -11 54 16 14 42 -48 68 -76 32z"/>
<path d="M2194 217 c-23 -20 -27 -32 -27 -72 0 -40 4 -52 27 -72 54 -46 146
-20 161 47 8 38 -11 97 -35 110 -34 18 -97 12 -126 -13z m90 -9 c8 -30 8 -78
0 -117 -5 -21 -12 -31 -25 -31 -17 0 -19 9 -19 85 0 77 2 85 19 85 11 0 21 -9
25 -22z"/>
<path d="M2394 219 c-21 -23 -9 -54 21 -54 23 0 46 35 28 42 -20 7 -15 23 7
23 17 0 20 -7 20 -40 0 -37 -2 -39 -35 -46 -59 -11 -81 -46 -49 -78 17 -18 69
-22 79 -6 4 7 12 7 25 0 41 -22 91 0 89 38 0 13 -3 11 -11 -5 -19 -40 -28 -25
-28 46 0 86 -12 101 -79 101 -36 0 -53 -5 -67 -21z m76 -114 c0 -24 -5 -35
-15 -35 -18 0 -20 41 -3 58 17 17 18 16 18 -23z"/>
<path d="M2588 233 c8 -3 12 -31 12 -88 0 -57 -4 -85 -12 -88 -7 -3 16 -5 52
-5 36 0 57 2 47 5 -16 4 -18 14 -17 76 3 114 6 107 -47 106 -27 0 -42 -3 -35
-6z"/>
<path d="M2689 223 c-13 -16 -12 -17 4 -4 22 17 34 7 17 -14 -11 -13 -11 -19
2 -31 29 -29 67 12 46 50 -12 21 -52 21 -69 -1z"/>
<path d="M32 88 c-6 -7 -12 -27 -14 -43 -3 -28 -1 -30 31 -28 60 2 67 35 14
70 -16 11 -22 11 -31 1z"/>
</g>
</svg>
